<svg id="eNtTsfxb5Y01" xmlns="http://www.w3.org/2000/svg" xmlns:xlink="http://www.w3.org/1999/xlink" viewBox="0 0 800 200" shape-rendering="geometricPrecision" text-rendering="geometricPrecision"><style><![CDATA[#eNtTsfxb5Y025_to {animation: eNtTsfxb5Y025_to__to 2000ms linear infinite normal forwards}@keyframes eNtTsfxb5Y025_to__to { 0% {transform: translate(131.880197px,117.211499px);animation-timing-function: cubic-bezier(0.645,0.045,0.355,1)} 35% {transform: translate(131.640487px,109.28162px);animation-timing-function: cubic-bezier(0.645,0.045,0.355,1)} 100% {transform: translate(131.880197px,117.211499px)}} #eNtTsfxb5Y025_tr {animation: eNtTsfxb5Y025_tr__tr 2000ms linear infinite normal forwards}@keyframes eNtTsfxb5Y025_tr__tr { 0% {transform: rotate(0deg);animation-timing-function: cubic-bezier(0.645,0.045,0.355,1)} 70% {transform: rotate(-5.568996deg);animation-timing-function: cubic-bezier(0.645,0.045,0.355,1)} 100% {transform: rotate(0deg)}} #eNtTsfxb5Y025 {animation: eNtTsfxb5Y025_f_p 2000ms linear infinite normal forwards}@keyframes eNtTsfxb5Y025_f_p { 0% {fill: rgb(248,29,29)} 25% {fill: rgb(65,248,29)} 50% {fill: rgb(29,242,248)} 75% {fill: rgb(150,29,248)} 100% {fill: rgb(248,29,29)}} #eNtTsfxb5Y026_to {animation: eNtTsfxb5Y026_to__to 2000ms linear infinite normal forwards}@keyframes eNtTsfxb5Y026_to__to { 0% {transform: translate(100.174521px,82.6525px);animation-timing-function: cubic-bezier(0.645,0.045,0.355,1)} 40% {transform: translate(97.977649px,71.010484px);animation-timing-function: cubic-bezier(0.645,0.045,0.355,1)} 100% {transform: translate(100.174521px,82.6525px)}} #eNtTsfxb5Y026_tr {animation: eNtTsfxb5Y026_tr__tr 2000ms linear infinite normal forwards}@keyframes eNtTsfxb5Y026_tr__tr { 0% {transform: rotate(0deg);animation-timing-function: cubic-bezier(0.645,0.045,0.355,1)} 70% {transform: rotate(-2.069453deg);animation-timing-function: cubic-bezier(0.645,0.045,0.355,1)} 100% {transform: rotate(0deg)}} #eNtTsfxb5Y026 {animation: eNtTsfxb5Y026_f_p 2000ms linear infinite normal forwards}@keyframes eNtTsfxb5Y026_f_p { 0% {fill: rgb(248,29,29)} 25% {fill: rgb(65,248,29)} 50% {fill: rgb(29,242,248)} 75% {fill: rgb(150,29,248)} 100% {fill: rgb(248,29,29)}}]]></style><g id="eNtTsfxb5Y02" transform="matrix(1 0 0 1 -93.057037 -22.187269)" clip-rule="evenodd"><g id="eNtTsfxb5Y03" transform="matrix(1 0 0 1 0 0.000001)"><path id="eNtTsfxb5Y04" d="M189.058,165.79C189.246,166.165,189.34,166.681,189.34,167.337C189.34,168.837,188.449,169.774,186.668,170.149C182.824,171.087,178.699,171.556,174.293,171.556C166.324,171.556,160.488,169.751,156.785,166.141C153.082,162.532,151.23,156.837,151.23,149.056L151.23,75.368L135.48,75.368C133.136,75.368,131.965,74.196,131.965,71.852L131.965,68.196C131.965,65.852,133.136,64.681,135.48,64.681L159.668,64.681C162.011,64.681,163.183,65.852,163.183,68.196L163.183,149.056C163.183,153.274,164.004,156.251,165.644,157.985C167.285,159.72,170.168,160.634,174.293,160.727C177.668,160.727,180.715,160.399,183.433,159.743C183.715,159.649,184.09,159.602,184.558,159.602C186.058,159.602,187.183,160.446,187.933,162.134L189.058,165.79Z" clip-rule="evenodd" fill="rgb(197,197,197)" stroke="none" stroke-width="1" stroke-linejoin="round" stroke-miterlimit="2"/><path id="eNtTsfxb5Y05" d="M241.371,98.149C246.715,98.149,251.496,99.485,255.715,102.157C259.933,104.829,263.261,108.931,265.699,114.462C268.136,119.993,269.355,126.837,269.355,134.993C269.355,143.149,268.136,149.993,265.699,155.524C263.261,161.056,259.933,165.157,255.715,167.829C251.496,170.501,246.715,171.837,241.371,171.837C236.027,171.837,231.175,170.477,226.816,167.759C222.457,165.04,218.965,160.915,216.34,155.384C213.715,149.852,212.402,143.056,212.402,134.993C212.402,126.931,213.715,120.134,216.34,114.602C218.965,109.071,222.457,104.946,226.816,102.227C231.175,99.509,236.027,98.149,241.371,98.149ZM240.949,161.009C245.918,161.009,249.902,158.712,252.902,154.118C255.902,149.524,257.402,143.149,257.402,134.993C257.402,126.837,255.902,120.462,252.902,115.868C249.902,111.274,245.918,108.977,240.949,108.977C235.98,108.977,231.972,111.274,228.925,115.868C225.879,120.462,224.355,126.837,224.355,134.993C224.355,143.149,225.879,149.524,228.925,154.118C231.972,158.712,235.98,161.009,240.949,161.009Z" clip-rule="evenodd" fill="rgb(197,197,197)" stroke="none" stroke-width="1" stroke-linejoin="round" stroke-miterlimit="2"/><path id="eNtTsfxb5Y06" d="M326.308,161.571C337.84,161.571,346.699,163.423,352.886,167.126C359.074,170.829,362.168,175.915,362.168,182.384C362.074,189.227,358.886,194.712,352.605,198.837C346.324,202.962,337.558,205.024,326.308,205.024C314.121,205.024,304.769,203.384,298.254,200.102C291.738,196.821,288.48,192.134,288.48,186.04C288.48,182.571,289.511,179.243,291.574,176.056C293.636,172.868,296.355,170.384,299.73,168.602C297.574,167.384,296.004,165.884,295.019,164.102C294.035,162.321,293.543,160.165,293.543,157.634C293.543,154.727,294.504,151.938,296.425,149.266C298.347,146.595,300.761,144.602,303.668,143.29C300.386,141.04,297.879,138.181,296.144,134.712C294.41,131.243,293.543,127.446,293.543,123.321C293.543,118.634,294.738,114.391,297.129,110.595C299.519,106.798,302.871,103.821,307.183,101.665C311.496,99.509,316.371,98.431,321.808,98.431C324.996,98.431,328.324,98.899,331.793,99.837L353.027,99.837C355.371,99.837,356.543,101.009,356.543,103.352L356.543,105.602C356.543,107.946,355.371,109.118,353.027,109.118L345.433,109.118C348.527,113.431,350.074,118.259,350.074,123.602C350.074,128.384,348.879,132.673,346.488,136.47C344.097,140.266,340.769,143.266,336.504,145.47C332.238,147.673,327.34,148.774,321.808,148.774C318.246,148.774,314.777,148.259,311.402,147.227C309.527,148.071,308.074,149.196,307.043,150.602C306.011,152.009,305.496,153.462,305.496,154.962C305.496,157.399,307.066,159.11,310.207,160.095C313.347,161.079,318.715,161.571,326.308,161.571ZM321.808,109.118C317.121,109.118,313.23,110.501,310.136,113.266C307.043,116.032,305.496,119.477,305.496,123.602C305.496,127.727,307.066,131.149,310.207,133.868C313.347,136.587,317.215,137.946,321.808,137.946C326.402,137.946,330.269,136.587,333.41,133.868C336.55,131.149,338.121,127.727,338.121,123.602C338.121,119.477,336.574,116.032,333.48,113.266C330.386,110.501,326.496,109.118,321.808,109.118ZM324.902,194.196C332.871,194.196,339.082,193.071,343.535,190.821C347.988,188.571,350.215,185.759,350.215,182.384C350.121,179.29,347.941,176.852,343.675,175.071C339.41,173.29,333.152,172.399,324.902,172.399C318.058,172.399,312.668,172.071,308.73,171.415C305.824,172.54,303.574,174.087,301.98,176.056C300.386,178.024,299.59,180.181,299.59,182.524C299.683,186.274,301.91,189.157,306.269,191.173C310.629,193.188,316.84,194.196,324.902,194.196Z" clip-rule="evenodd" fill="rgb(197,197,197)" stroke="none" stroke-width="1" stroke-linejoin="round" stroke-miterlimit="2"/><g id="eNtTsfxb5Y07" transform="matrix(1 0 0 1 342.216 -143.679)" clip-rule="evenodd"><path id="eNtTsfxb5Y08" d="M187.23,254.665C186.668,256.165,185.683,256.915,184.277,256.915C183.621,256.915,183.105,256.821,182.73,256.634C176.824,254.477,171.152,253.399,165.715,253.399C158.965,253.399,153.597,255.415,149.613,259.446C145.629,263.477,143.636,269.993,143.636,278.993C143.636,287.993,145.629,294.509,149.613,298.54C153.597,302.571,158.965,304.587,165.715,304.587C170.965,304.587,176.636,303.509,182.73,301.352C183.105,301.165,183.621,301.071,184.277,301.071C185.683,301.071,186.668,301.821,187.23,303.321L188.636,306.696C188.918,307.259,189.058,307.821,189.058,308.384C189.058,309.79,188.308,310.774,186.808,311.337C180.246,314.149,173.215,315.556,165.715,315.556C155.871,315.556,147.715,312.579,141.246,306.626C134.777,300.673,131.543,291.462,131.543,278.993C131.543,266.524,134.777,257.313,141.246,251.36C147.715,245.407,155.871,242.431,165.715,242.431C173.121,242.431,180.152,243.837,186.808,246.649C188.308,247.212,189.058,248.196,189.058,249.602C189.058,250.165,188.918,250.727,188.636,251.29L187.23,254.665Z" clip-rule="evenodd" fill="rgb(197,197,197)" stroke="none" stroke-width="1" stroke-linejoin="round" stroke-miterlimit="2"/></g><g id="eNtTsfxb5Y09" transform="matrix(0 -1 1 0 138.723 288.191)" clip-rule="evenodd"><path id="eNtTsfxb5Y010" d="M187.23,254.665C186.668,256.165,185.683,256.915,184.277,256.915C183.621,256.915,183.105,256.821,182.73,256.634C176.824,254.477,171.152,253.399,165.715,253.399C158.965,253.399,153.597,255.415,149.613,259.446C145.629,263.477,143.636,269.993,143.636,278.993C143.636,287.993,145.629,294.509,149.613,298.54C153.597,302.571,158.965,304.587,165.715,304.587C170.965,304.587,176.636,303.509,182.73,301.352C183.105,301.165,183.621,301.071,184.277,301.071C185.683,301.071,186.668,301.821,187.23,303.321L188.636,306.696C188.918,307.259,189.058,307.821,189.058,308.384C189.058,309.79,188.308,310.774,186.808,311.337C180.246,314.149,173.215,315.556,165.715,315.556C155.871,315.556,147.715,312.579,141.246,306.626C134.777,300.673,131.543,291.462,131.543,278.993C131.543,266.524,134.777,257.313,141.246,251.36C147.715,245.407,155.871,242.431,165.715,242.431C173.121,242.431,180.152,243.837,186.808,246.649C188.308,247.212,189.058,248.196,189.058,249.602C189.058,250.165,188.918,250.727,188.636,251.29L187.23,254.665Z" clip-rule="evenodd" fill="rgb(197,197,197)" stroke="none" stroke-width="1" stroke-linejoin="round" stroke-miterlimit="2"/></g><g id="eNtTsfxb5Y011" transform="matrix(1 0 0 1 342.216 -143.679)" clip-rule="evenodd"><path id="eNtTsfxb5Y012" d="M268.09,254.665C267.527,256.165,266.543,256.915,265.136,256.915C264.48,256.915,263.965,256.821,263.59,256.634C257.683,254.477,252.011,253.399,246.574,253.399C239.824,253.399,234.457,255.415,230.472,259.446C226.488,263.477,224.496,269.993,224.496,278.993C224.496,287.993,226.488,294.509,230.472,298.54C234.457,302.571,239.824,304.587,246.574,304.587C251.824,304.587,257.496,303.509,263.59,301.352C263.965,301.165,264.48,301.071,265.136,301.071C266.543,301.071,267.527,301.821,268.09,303.321L269.496,306.696C269.777,307.259,269.918,307.821,269.918,308.384C269.918,309.79,269.168,310.774,267.668,311.337C261.105,314.149,254.074,315.556,246.574,315.556C236.73,315.556,228.574,312.579,222.105,306.626C215.636,300.673,212.402,291.462,212.402,278.993C212.402,266.524,215.636,257.313,222.105,251.36C228.574,245.407,236.73,242.431,246.574,242.431C253.98,242.431,261.011,243.837,267.668,246.649C269.168,247.212,269.918,248.196,269.918,249.602C269.918,250.165,269.777,250.727,269.496,251.29L268.09,254.665Z" clip-rule="evenodd" fill="rgb(197,197,197)" stroke="none" stroke-width="1" stroke-linejoin="round" stroke-miterlimit="2"/></g><g id="eNtTsfxb5Y013" transform="matrix(1 0 0 1 342.216 -143.679)" clip-rule="evenodd"><path id="eNtTsfxb5Y014" d="M324.199,207.274C326.543,207.274,327.715,208.446,327.715,210.79L327.715,220.071C327.715,222.415,326.543,223.587,324.199,223.587L315.058,223.587C312.715,223.587,311.543,222.415,311.543,220.071L311.543,210.79C311.543,208.446,312.715,207.274,315.058,207.274L324.199,207.274ZM346.699,303.321C349.043,303.321,350.215,304.493,350.215,306.837L350.215,310.634C350.215,312.977,349.043,314.149,346.699,314.149L296.777,314.149C294.433,314.149,293.261,312.977,293.261,310.634L293.261,306.837C293.261,304.493,294.433,303.321,296.777,303.321L315.761,303.321L315.761,254.524L301.418,254.524C299.074,254.524,297.902,253.352,297.902,251.009L297.902,247.352C297.902,245.009,299.074,243.837,301.418,243.837L324.199,243.837C326.543,243.837,327.715,245.009,327.715,247.352L327.715,303.321L346.699,303.321Z" clip-rule="evenodd" fill="rgb(197,197,197)" stroke="none" stroke-width="1" stroke-linejoin="round" stroke-miterlimit="2"/></g><g id="eNtTsfxb5Y015" transform="matrix(1 0 0 1 95.978 -143.311)" clip-rule="evenodd"><path id="eNtTsfxb5Y016" d="M346.699,303.321C349.043,303.321,350.215,304.493,350.215,306.837L350.215,310.634C350.215,312.977,349.043,314.149,346.699,314.149L296.777,314.149C294.433,314.149,293.261,312.977,293.261,310.634L293.261,306.837C293.261,304.493,294.433,303.321,296.777,303.321L346.699,303.321Z" clip-rule="evenodd" fill="rgb(197,197,197)" stroke="none" stroke-width="1" stroke-linejoin="round" stroke-miterlimit="2"/></g><g id="eNtTsfxb5Y017" transform="matrix(1 0 0 1 342.216 -143.679)" clip-rule="evenodd"><path id="eNtTsfxb5Y018" d="M374.121,247.915C374.121,245.852,375.199,244.587,377.355,244.118C384.855,242.993,392.824,242.431,401.261,242.431C411.761,242.431,419.355,244.61,424.043,248.97C428.73,253.329,431.074,260.618,431.074,270.837L431.074,310.634C431.074,312.977,429.902,314.149,427.558,314.149L422.636,314.149C420.293,314.149,419.121,312.977,419.121,310.634L419.121,270.837C419.121,264.274,417.761,259.681,415.043,257.056C412.324,254.431,407.73,253.118,401.261,253.118C396.761,253.118,391.699,253.306,386.074,253.681L386.074,310.634C386.074,312.977,384.902,314.149,382.558,314.149L377.636,314.149C375.293,314.149,374.121,312.977,374.121,310.634L374.121,247.915Z" clip-rule="evenodd" fill="rgb(197,197,197)" stroke="none" stroke-width="1" stroke-linejoin="round" stroke-miterlimit="2"/></g><g id="eNtTsfxb5Y019" transform="matrix(1 0 0 1 342.216 -143.679)" clip-rule="evenodd"><path id="eNtTsfxb5Y020" d="M483.949,242.149C489.293,242.149,494.074,243.485,498.293,246.157C502.511,248.829,505.84,252.931,508.277,258.462C510.715,263.993,511.933,270.837,511.933,278.993C511.933,287.149,510.715,293.993,508.277,299.524C505.84,305.056,502.511,309.157,498.293,311.829C494.074,314.501,489.293,315.837,483.949,315.837C478.605,315.837,473.754,314.477,469.394,311.759C465.035,309.04,461.543,304.915,458.918,299.384C456.293,293.852,454.98,287.056,454.98,278.993C454.98,270.931,456.293,264.134,458.918,258.602C461.543,253.071,465.035,248.946,469.394,246.227C473.754,243.509,478.605,242.149,483.949,242.149ZM483.527,305.009C488.496,305.009,492.48,302.712,495.48,298.118C498.48,293.524,499.98,287.149,499.98,278.993C499.98,270.837,498.48,264.462,495.48,259.868C492.48,255.274,488.496,252.977,483.527,252.977C478.558,252.977,474.55,255.274,471.504,259.868C468.457,264.462,466.933,270.837,466.933,278.993C466.933,287.149,468.457,293.524,471.504,298.118C474.55,302.712,478.558,305.009,483.527,305.009Z" clip-rule="evenodd" fill="rgb(197,197,197)" stroke="none" stroke-width="1" stroke-linejoin="round" stroke-miterlimit="2"/></g></g><g id="eNtTsfxb5Y021" transform="matrix(0 -0.608338 0.669775 0 230.853 223.184)" clip-rule="evenodd"><path id="eNtTsfxb5Y022" d="M188.636,251.29L188.636,306.696C188.918,307.259,189.058,307.821,189.058,308.384C189.058,309.79,188.308,310.774,186.808,311.337C180.246,314.149,173.215,315.556,165.715,315.556C155.871,315.556,147.715,312.579,141.246,306.626C134.777,300.673,131.543,291.462,131.543,278.993C131.543,266.524,134.777,257.313,141.246,251.36C147.715,245.407,155.871,242.431,165.715,242.431C173.121,242.431,180.152,243.837,186.808,246.649C188.308,247.212,189.058,248.196,189.058,249.602C189.058,250.165,188.918,250.727,188.636,251.29Z" clip-rule="evenodd" fill="rgb(123,58,58)" stroke="none" stroke-width="1" stroke-linejoin="round" stroke-miterlimit="2"/></g></g><g id="eNtTsfxb5Y024" transform="matrix(0.378259 0 0 0.378259 274.773963 15.867731)" clip-rule="evenodd"><g id="eNtTsfxb5Y025_to" transform="translate(131.880197,117.211499)"><g id="eNtTsfxb5Y025_tr" transform="rotate(0)"><path id="eNtTsfxb5Y025" d="M131.274,141.53C145.206,157.571,127.614,172.005,127.614,172.005C127.614,172.005,162.99,153.743,146.743,130.874C131.569,109.548,119.933,98.952,182.927,62.418C182.927,62.418,84.048,87.113,131.274,141.53" transform="translate(-131.880197,-117.211499)" clip-rule="evenodd" fill="rgb(248,29,29)" stroke="none" stroke-width="1" stroke-linejoin="round" stroke-miterlimit="2"/></g></g><g id="eNtTsfxb5Y026_to" transform="translate(100.174521,82.6525)"><g id="eNtTsfxb5Y026_tr" transform="rotate(0)"><path id="eNtTsfxb5Y026" d="M146.743,3.425C146.743,3.425,176.754,33.446,118.279,79.61C71.388,116.642,107.586,137.756,118.259,161.88C90.888,137.185,70.801,115.445,84.277,95.212C104.057,65.511,158.852,51.112,146.743,3.425" transform="translate(-100.174521,-82.6525)" clip-rule="evenodd" fill="rgb(248,29,29)" stroke="none" stroke-width="1" stroke-linecap="round" stroke-linejoin="round" stroke-miterlimit="2"/></g></g></g></svg>